<svg width="10" height="10" viewBox="0 0 10 10" fill="none" xmlns="http://www.w3.org/2000/svg">
<g clip-path="url(#clip0_3500_18517)">
<path d="M7.05192 1.33424C7.15788 1.22827 7.28368 1.14421 7.42214 1.08687C7.56059 1.02952 7.70898 1 7.85884 1C8.0087 1 8.15709 1.02952 8.29554 1.08687C8.43399 1.14421 8.5598 1.22827 8.66576 1.33424C8.77173 1.4402 8.85579 1.56601 8.91313 1.70446C8.97048 1.84291 9 1.9913 9 2.14116C9 2.29102 8.97048 2.43941 8.91313 2.57786C8.85579 2.71632 8.77173 2.84212 8.66576 2.94808L3.21904 8.39481L1 9L1.60519 6.78096L7.05192 1.33424Z" stroke="#4B4A49" stroke-width="1.03747" stroke-linecap="round" stroke-linejoin="round"/>
</g>
<defs>
<clipPath id="clip0_3500_18517">
<rect width="10" height="10" fill="white"/>
</clipPath>
</defs>
</svg>
