<svg width="7" height="8" viewBox="0 0 7 8" fill="none" xmlns="http://www.w3.org/2000/svg">
<path d="M6.35938 4C6.35937 4.03339 6.35036 4.06661 6.33398 4.0957C6.3259 4.10999 6.31599 4.12305 6.30469 4.13477L6.26562 4.16602L0.863281 7.40137V7.40234C0.834002 7.41925 0.800405 7.42856 0.766602 7.42871C0.732839 7.42881 0.699293 7.41997 0.669922 7.40332C0.64055 7.38658 0.615828 7.36212 0.598633 7.33301C0.581429 7.30377 0.571662 7.27025 0.571289 7.23633V0.763672C0.571662 0.729754 0.581429 0.69623 0.598633 0.666992C0.615827 0.637885 0.640549 0.613423 0.669922 0.59668C0.699292 0.580033 0.732838 0.571195 0.766602 0.571289C0.783492 0.571366 0.800235 0.573755 0.816406 0.578125L0.863281 0.597656L6.26562 3.83398C6.29404 3.85122 6.31761 3.87539 6.33398 3.9043C6.35036 3.93339 6.35938 3.96661 6.35938 4Z" fill="#4B4A49" stroke="#4B4A49" stroke-width="1.14286" stroke-linecap="round" stroke-linejoin="round"/>
</svg>
