<svg width="11" height="12" viewBox="0 0 11 12" fill="none" xmlns="http://www.w3.org/2000/svg">
<path d="M9.0699 4.86901L1.9999 0.634009C1.84869 0.546693 1.67725 0.500493 1.50264 0.500004C1.32803 0.499515 1.15633 0.544755 1.00463 0.631223C0.852937 0.717691 0.726523 0.842372 0.637972 0.992863C0.54942 1.14335 0.501816 1.31441 0.499897 1.48901V9.95901C0.501816 10.1336 0.54942 10.3047 0.637972 10.4552C0.726523 10.6056 0.852937 10.7303 1.00463 10.8168C1.15633 10.9033 1.32803 10.9485 1.50264 10.948C1.67725 10.9475 1.84869 10.9013 1.9999 10.814L9.0699 6.57901C9.21684 6.48987 9.33834 6.36437 9.42266 6.21461C9.50697 6.06484 9.55127 5.89588 9.55127 5.72401C9.55127 5.55214 9.50697 5.38317 9.42266 5.23341C9.33834 5.08365 9.21684 4.95814 9.0699 4.86901Z" stroke="white" stroke-linecap="round" stroke-linejoin="round"/>
</svg>
